<mxfile host="app.diagrams.net" modified="2023-11-13T09:02:15.159Z" agent="Mozilla/5.0 (Linux; arm_64; Android 9; Redmi Note 8T) AppleWebKit/537.36 (KHTML, like Gecko) Chrome/114.0.0.0 YaSearchBrowser/23.71.1 BroPP/1.0 YaSearchApp/23.71.1 webOmni SA/3 Mobile Safari/537.36" version="22.1.0" etag="4vSdESOMBhmnAECvqrF3" type="github">
  <diagram name="Страница — 1" id="TfNnGaq-_2IrYVEtNZs3">
    <mxGraphModel>
      <root>
        <mxCell id="0" />
        <mxCell id="1" parent="0" />
      </root>
    </mxGraphModel>
  </diagram>
</mxfile>
